<svg xmlns="http://www.w3.org/2000/svg" xmlns:xlink="http://www.w3.org/1999/xlink" x="0px" y="0px" width="16px" height="16px" viewBox="0 0 16 16"><g  transform="translate(0, 0)">
<path data-color="color-2" fill="#444444" d="M12.7,0.3c-0.4-0.4-1-0.4-1.4,0l-7,7C4.1,7.5,4,7.7,4,8v3c0,0.6,0.4,1,1,1h3&#10;&#9;c0.3,0,0.5-0.1,0.7-0.3l7-7c0.4-0.4,0.4-1,0-1.4L12.7,0.3z M7.6,10H6V8.4l6-6L13.6,4L7.6,10z"/>
<path fill="#444444" d="M15,10c-0.6,0-1,0.4-1,1v3H2V2h3c0.6,0,1-0.4,1-1S5.6,0,5,0H1C0.4,0,0,0.4,0,1v14c0,0.6,0.4,1,1,1h14&#10;&#9;c0.6,0,1-0.4,1-1v-4C16,10.4,15.6,10,15,10z"/>
</g></svg>