<svg viewBox="0 0 100 100" xmlns="http://www.w3.org/2000/svg"><defs><style>.cls-1{fill:#225896}</style><style>circle{fill:gray;animation:pulse 2s infinite}#circle-2{animation-delay:.2s}#circle-3{animation-delay:.4s}#circle-4{animation-delay:.6s}#circle-5{animation-delay:.8s}#circle-7{animation-delay:.6s}#circle-8{animation-delay:.4s}#circle-9{animation-delay:.2s}@keyframes pulse{0%,to{opacity:1}50%{opacity:.4}}</style></defs><symbol viewBox="0 0 24 24" id="icon-add"><title>add</title><path fill="currentColor" d="M12 11h5v1h-5v5h-1v-5H6v-1h5V6h1v5zm11 .5C23 17.9 17.9 23 11.5 23S0 17.9 0 11.5 5.1 0 11.5 0 23 5.1 23 11.5zm-1 0C22 5.7 17.3 1 11.5 1S1 5.7 1 11.5 5.7 22 11.5 22 22 17.3 22 11.5z"/></symbol><symbol viewBox="0 0 24 24" id="icon-automobile"><title>automobile</title><path fill="currentColor" d="M6 18v2c0 1.1-.9 2-2 2H3c-1.1 0-2-.9-2-2v-2h1v2c0 .6.4 1 1 1h1c.6 0 1-.4 1-1v-2h1zm16 0v2c0 .6-.4 1-1 1h-1c-.6 0-1-.4-1-1v-2h-1v2c0 1.1.9 2 2 2h1c1.1 0 2-.9 2-2v-2h-1zM7.7 5L6.4 9h11.2l-1.5-4H7.7zm8.7-1c.3 0 .7.3.8.6l1.6 4.9c.1.3-.1.6-.4.6H5.6c-.3 0-.5-.3-.4-.6l1.6-4.9c.1-.3.5-.6.8-.6h8.8zm7.6 8v4c0 .6-.4 1-1 1H1c-.6 0-1-.4-1-1v-4c0-1.8 1.2-3.4 2.9-3.8l1.8-4.7C5.1 2.7 6.1 2 6.9 2H17c.9 0 1.9.7 2.2 1.5L21 8.2c1.8.4 3 2 3 3.8zm-1 0c0-1.5-1.2-2.8-2.7-3l-2-5.2c-.2-.5-.8-.8-1.3-.8H6.9c-.5 0-1 .3-1.3.9L3.6 9C2.2 9.2 1 10.5 1 12v4h22v-4zM5.5 12c.8 0 1.5.7 1.5 1.5S6.3 15 5.5 15 4 14.3 4 13.5 4.7 12 5.5 12zm13 0c.8 0 1.5.7 1.5 1.5s-.7 1.5-1.5 1.5-1.5-.7-1.5-1.5.7-1.5 1.5-1.5z"/></symbol><symbol viewBox="0 0 24 24" id="icon-ban"><title>ban</title><path fill="currentColor" d="M12 1C5.9 1 1 5.9 1 12s4.9 11 11 11 11-4.9 11-11S18.1 1 12 1zM5 12c0-3.9 3.1-7 7-7 1.2 0 2.3.3 3.3.8l-9.5 9.5c-.5-1-.8-2.1-.8-3.3zm7 7c-1.2 0-2.3-.3-3.3-.8l9.5-9.5c.5 1 .8 2.1.8 3.3 0 3.9-3.1 7-7 7z"/></symbol><symbol viewBox="0 0 24 24" id="icon-bar-chart"><title>bar-chart</title><path fill="currentColor" d="M23 1v22H1V1h22m0-1H1C.4 0 0 .4 0 1v22c0 .6.4 1 1 1h22c.6 0 1-.4 1-1V1c0-.6-.4-1-1-1zM5 17H4v5h1v-5zm5-7H9v12h1V10zm5 3h-1v9h1v-9zm5-8h-1v17h1V5z"/></symbol><symbol viewBox="0 0 24 24" id="icon-bulb"><title>bulb</title><path fill="currentColor" d="M17 8.2c.1.3 0 .5-.3.6l-10 3.5h-.2c-.2 0-.4-.1-.5-.3-.1-.3 0-.5.3-.6l10-3.5c.3-.1.6.1.7.3zm-.7-3.3l-10 3.5c-.2.1-.4.4-.3.7.1.2.3.3.5.3h.2l10-3.5c.3-.1.4-.4.3-.6-.1-.3-.4-.5-.7-.4zM6.5 6.4h.2l10-3.5c.3-.1.4-.4.3-.6-.1-.3-.4-.4-.6-.3l-10 3.5c-.3 0-.5.3-.4.6.1.2.3.3.5.3zm0-3h.2l7-2.4c.3-.1.4-.4.3-.6-.1-.3-.4-.4-.6-.3l-7 2.4c-.3 0-.5.3-.4.6.1.2.3.3.5.3zM17 11.2c.1.3 0 .5-.3.6L10 14.2V16h3v-1.5l1-.3V16h1c.6 0 1 .4 1 1v2c0 1.3-1 2.4-2 2.8V23c0 .6-.4 1-1 1h-3c-.6 0-1-.4-1-1v-1.2c-1-.4-2-1.5-2-2.8v-2c0-.6.4-1 1-1h1v-2.2c0-.2.1-.4.3-.5l7-2.4c.3-.1.6.1.7.3zM8 17v2c0 1.1 1 2 2 2v2h3v-2c1 0 2-.9 2-2v-2H8z"/></symbol><symbol viewBox="0 0 24 24" id="icon-calendar"><title>calendar</title><path fill="currentColor" d="M24 4v19c0 .5-.5 1-1 1H1c-.5 0-1-.5-1-1V4c0-.5.5-1 1-1h4v1H1v19h22V4h-4V3h4c.5 0 1 .5 1 1zM7 0H6v5h1V0zm11 0h-1v5h1V0zm-5 7h-2v2h2V7zm4 0h-2v2h2V7zm4 0h-2v2h2V7zM5 11H3v2h2v-2zm4 0H7v2h2v-2zm4 0h-2v2h2v-2zm4 0h-2v2h2v-2zm4 0h-2v2h2v-2zM5 15H3v2h2v-2zm4 0H7v2h2v-2zm2 2h2v-2h-2v2zm4 0h2v-2h-2v2zm6-2h-2v2h2v-2zM3 21h2v-2H3v2zm4 0h2v-2H7v2zM8 3v1h8V3"/></symbol><symbol viewBox="0 0 12 11" id="icon-caret-down"><title>caret-down</title><path d="M2 4l4 4 4-4H2z"/></symbol><symbol viewBox="0 0 6 16" id="icon-caret-left"><title>caret-left</title><path fill="currentColor" d="M0 7.998l5.996 5.996V2.002L0 7.998z"/></symbol><symbol viewBox="0 0 6 16" id="icon-caret-right"><title>caret-right</title><path d="M.5 3l5 5-5 5V3z"/></symbol><symbol viewBox="0 0 12 16" id="icon-caret-up"><title>caret-up</title><path fill="currentColor" d="M5.996 4L0 9.996h11.992L5.996 4z"/></symbol><symbol viewBox="0 0 24 24" id="icon-caution"><title>caution</title><g fill="none" stroke="currentColor" stroke-width="2" stroke-linecap="round" stroke-miterlimit="10" stroke-linejoin="round"><circle cx="12" cy="12" r="11"/><path data-color="color-2" d="M12 7v6m0 3v1"/></g></symbol><symbol viewBox="0 0 24 24" id="icon-chat"><title>chat</title><path fill="none" stroke="currentColor" stroke-width="2" stroke-linecap="square" stroke-miterlimit="10" d="M20.4 16.8C22 15.2 23 13.2 23 11c0-5-4.9-9-11-9S1 6 1 11s4.9 9 11 9c1.1 0 2.1-.1 3.1-.4L21 22l-.6-5.2z"/></symbol><symbol viewBox="0 0 18 18" id="icon-circle-check"><title>circle-check</title><path id="circle-check-Combined-Shape" d="M7.1 11.3L5.2 9.4l1.3-1.3 1.3 1.3 3.8-3.8 1.3 1.3-5 5-.8-.6zM9 17c4.4 0 8-3.6 8-8s-3.6-8-8-8-8 3.6-8 8 3.6 8 8 8z"/></symbol><symbol viewBox="0 0 16 16" id="icon-circle"><title>circle</title><path fill="currentColor" d="M16 8A8 8 0 1 1 0 8a8 8 0 0 1 16 0z"/></symbol><symbol viewBox="0 0 24 24" id="icon-clipboard"><title>clipboard</title><path fill="currentColor" d="M19 2h-1V0h-1v2h-2V0h-1v2h-2V0h-1v2H9V0H8v2H6V0H5v2H4c-.6 0-1 .4-1 1v20c0 .6.4 1 1 1h15c.6 0 1-.4 1-1V3c0-.6-.4-1-1-1zm0 21H4V3h15v20zM13 8H6V7h7v1zm2 4H6v-1h9v1zm-9 3h11v1H6v-1zm0 4h11v1H6v-1z"/></symbol><symbol viewBox="0 0 24 24" id="icon-desk-phone"><title>desk-phone</title><path fill="currentColor" d="M20 13v3h-6v-3h6m.5-1h-7c-.3 0-.5.2-.5.5v4c0 .3.2.5.5.5h7c.3 0 .5-.2.5-.5v-4c0-.3-.2-.5-.5-.5zm.5 8h-8v1h8v-1zm0-2h-8v1h8v-1zm2-9H11V0h-1v20H4V5h5V4H4c-.6 0-1 .4-1 1v4H1c-.6 0-1 .4-1 1v13c0 .6.4 1 1 1h22c.6 0 1-.4 1-1V10c0-.6-.4-1-1-1zm0 14H1V10h2v10c0 .6.4 1 1 1h6c.6 0 1-.4 1-1V10h12v13z"/></symbol><symbol viewBox="0 0 24 24" id="icon-document"><title>document</title><g fill="none" stroke="currentColor" stroke-width="2" stroke-miterlimit="10"><path data-cap="butt" d="M15 23v-6h6"/><path stroke-linecap="square" d="M15 23H3V1h18v16z"/></g></symbol><symbol viewBox="0 0 16 16" id="icon-download"><title>Download</title><path fill="currentColor" d="M7 7.66L5.86 6.53a1 1 0 0 0-1.41 1.41l2.84 2.84a1 1 0 0 0 .7.29 1 1 0 0 0 .7-.29l2.84-2.84a1 1 0 0 0-1.41-1.41L9 7.65V2a1 1 0 0 0-2 0zM1 14a1 1 0 0 1 1-1h12a1 1 0 1 1 0 2H2a1 1 0 0 1-1-1z"/></symbol><symbol viewBox="0 0 37 24" id="icon-email-alt"><title>email-alt</title><path fill="currentColor" d="M23 5H1c-.6 0-1 .4-1 1v12c0 .6.4 1 1 1h22c.6 0 1-.4 1-1V6c0-.6-.4-1-1-1zm0 13H1V6h22v12zm-11.3-3.1l-9-6.5.6-.8 8.7 6.3 8.7-6.3.6.8-9 6.5c-.1.1-.2.1-.3.1s-.2 0-.3-.1zM37 6v1H25V6h12zm-12 4h9v1h-9v-1zm0 4h6v1h-6v-1z"/></symbol><symbol viewBox="0 0 24 24" id="icon-email"><title>email</title><g fill="none" stroke="currentColor" stroke-width="2" stroke-linecap="square" stroke-miterlimit="10"><path d="M1 8v13h22V8"/><path data-color="color-2" d="M23 8V3H1v5l11 6z"/></g></symbol><symbol viewBox="0 0 19.15 17.37" id="icon-external-link"><title>external-icon</title><path class="cls-1" d="M8.55 12.64H1.43V4.57h7.12V6.8h1.43V3.14H0v10.93h9.98v-3.66H8.55v2.23zm4.6-6.41h-1.01l2.01 1.99h-9.8v.76h9.8l-2.01 2h1.01l2.38-2.37-2.38-2.38z"/></symbol><symbol viewBox="0 0 24 24" id="icon-factory"><title>factory</title><path fill="currentColor" d="M16 22h-1v-7c0-.6.4-1 1-1h4c.6 0 1 .4 1 1v7h-1v-7h-4v7zm8-16.5V23c0 .6-.4 1-1 1H1c-.6 0-1-.4-1-1V3c0-.6.4-1 1-1h3c.6 0 1 .4 1 1v7.6l8.2-5.5c.2-.1.4-.1.5 0 .2 0 .3.2.3.4v5.1l9.2-5.5c.2-.1.3-.1.5 0s.3.2.3.4zm-1 .9l-9.2 5.5c-.2.1-.3.1-.5 0s-.3-.3-.3-.4V6.4l-8.2 5.5c-.2.1-.4.1-.5 0-.2 0-.3-.2-.3-.4V3H1v20h22V6.4z"/></symbol><symbol viewBox="0 0 24 24" id="icon-feedback"><title>feedback</title><path fill="currentColor" d="M6 8.5C6 7.7 6.7 7 7.5 7S9 7.7 9 8.5 8.3 10 7.5 10 6 9.3 6 8.5zm6.5 1.5c.8 0 1.5-.7 1.5-1.5S13.3 7 12.5 7 11 7.7 11 8.5s.7 1.5 1.5 1.5zm5 0c.8 0 1.5-.7 1.5-1.5S18.3 7 17.5 7 16 7.7 16 8.5s.7 1.5 1.5 1.5zM24 1v15c0 .6-.4 1-1 1H8.2L0 24V1c0-.6.4-1 1-1h22c.6 0 1 .4 1 1zm-1 0H1v20.8L7.8 16H23V1z"/></symbol><symbol viewBox="0 0 24 24" id="icon-filter"><title>filter</title><path fill="currentColor" d="M7.9 6c-.2-1.1-1.2-2-2.4-2s-2.2.9-2.4 2H0v1h3.1c.2 1.1 1.2 2 2.4 2s2.2-.9 2.4-2H24V6H7.9zM5.5 8C4.7 8 4 7.3 4 6.5S4.7 5 5.5 5 7 5.7 7 6.5 6.3 8 5.5 8zm11 2c-1.2 0-2.2.9-2.4 2H0v1h14.1c.2 1.1 1.2 2 2.4 2s2.2-.9 2.4-2H24v-1h-5.1c-.2-1.1-1.2-2-2.4-2zm0 4c-.8 0-1.5-.7-1.5-1.5s.7-1.5 1.5-1.5 1.5.7 1.5 1.5-.7 1.5-1.5 1.5zm-8 2c-1.2 0-2.2.9-2.4 2H0v1h6.1c.2 1.1 1.2 2 2.4 2s2.2-.9 2.4-2H24v-1H10.9c-.2-1.1-1.2-2-2.4-2zm0 4c-.8 0-1.5-.7-1.5-1.5S7.7 17 8.5 17s1.5.7 1.5 1.5S9.3 20 8.5 20z"/></symbol><symbol viewBox="0 0 16 16" id="icon-github"><title>Github</title><path fill="currentColor" d="M8 1a7.08 7.08 0 0 0-7 7.17A7.23 7.23 0 0 0 5.75 15a.37.37 0 0 0 .47-.35v-1.24c-1.93.44-2.35-1-2.35-1a1.81 1.81 0 0 0-.77-1.06c-.64-.44 0-.44 0-.44a1.5 1.5 0 0 1 1.07.75 1.46 1.46 0 0 0 2 .62 1.55 1.55 0 0 1 .43-1c-1.54-.18-3.17-.79-3.17-3.56a2.77 2.77 0 0 1 .73-1.94 2.57 2.57 0 0 1 .14-1.83s.6-.18 1.93.75A5.83 5.83 0 0 1 8 4.48a7.68 7.68 0 0 1 1.76.22c1.33-.92 1.93-.75 1.93-.75a2.83 2.83 0 0 1 .09 1.89 2.89 2.89 0 0 1 .73 1.94c0 2.77-1.63 3.34-3.17 3.52a1.71 1.71 0 0 1 .47 1.32v2a.37.37 0 0 0 .47.35A7.19 7.19 0 0 0 8 1z"/></symbol><symbol viewBox="0 0 24 24" id="icon-global"><title>global</title><path fill="currentColor" d="M11.5 1C17.3 1 22 5.7 22 11.5S17.3 22 11.5 22 1 17.3 1 11.5 5.7 1 11.5 1m0-1C5.1 0 0 5.1 0 11.5S5.1 23 11.5 23 23 17.9 23 11.5 17.9 0 11.5 0zm5.8 16c.4-1.3.6-2.6.7-4h3v-1h-3c0-1.4-.3-2.7-.7-4h2.6c-.2-.3-.4-.7-.6-1H17c-.4-1.1-1-2.2-1.7-3.2-.5-.2-1.1-.4-1.7-.6.9 1.1 1.7 2.4 2.3 3.8H12V2h-1v4H7.1c.6-1.4 1.4-2.6 2.3-3.8-.6.2-1.2.4-1.7.6C7 3.8 6.5 4.9 6 6H3.8c-.3.3-.5.7-.7 1h2.6C5.3 8.3 5 9.6 5 11H2v1h3c0 1.4.3 2.7.7 4H3.1c.2.3.4.7.6 1H6c.4 1.1 1 2.2 1.7 3.2.5.2 1.1.4 1.7.6-.9-1.1-1.7-2.4-2.3-3.8H11v4h1v-4h3.9c-.6 1.4-1.4 2.6-2.3 3.8.6-.1 1.2-.3 1.7-.6.7-1 1.2-2.1 1.7-3.2h2.3c.2-.3.4-.7.6-1h-2.6zM11 16H6.7c-.4-1.3-.7-2.6-.7-4h5v4zm0-5H6c0-1.4.3-2.7.7-4H11v4zm5.3 5H12v-4h5c0 1.4-.3 2.7-.7 4zM12 11V7h4.3c.4 1.3.7 2.6.7 4h-5z"/></symbol><symbol viewBox="0 0 24 24" id="icon-graph-chart"><title>graph-chart</title><path fill="currentColor" d="M23 0H1C.4 0 0 .4 0 1v22c0 .6.4 1 1 1h22c.6 0 1-.4 1-1V1c0-.6-.4-1-1-1zm0 23H1V1h22v22zM3.4 21.2l-.9-.4 3-6c.1-.2.2-.3.4-.3s.4.1.4.2l2.5 4.2 3.6-8.1c.1-.2.2-.3.4-.3s.3 0 .4.1l2.5 2.5 4.7-10.3.9.4-5 11c-.1.1-.2.3-.4.3s-.3 0-.4-.1L13 11.9l-3.7 8.3c-.1.2-.2.3-.4.3s-.4-.1-.5-.2L6 16l-2.6 5.2z"/></symbol><symbol viewBox="0 0 24 24" id="icon-home"><title>home</title><path fill="currentColor" d="M19 11h1v11c0 .6-.4 1-1 1H5c-.6 0-1-.4-1-1V11h1v11h14V11zm-9 10v-8h4v8h1v-8c0-.6-.4-1-1-1h-4c-.6 0-1 .4-1 1v8h1zm13.3-9.4l-11-10c-.2-.2-.5-.2-.7 0l-11 10 .7.7L12 2.7l10.7 9.7.6-.8z"/></symbol><symbol viewBox="0 0 24 24" id="icon-legal"><title>legal</title><path fill="currentColor" d="M10.3 12.8l.7.7-9.6 9.6-.7-.7 9.6-9.6zm12.9-.1l-6.6 6.6c-.4.4-1 .4-1.4 0l-1-1c-.4-.4-.4-1 0-1.4l.1-.1-7.2-7.2-.1.1c-.4.4-1 .4-1.4 0l-1-1c-.4-.4-.4-1 0-1.4L11.2.7c.4-.4 1-.4 1.4 0l1 1c.4.4.4 1 0 1.4l-.1.1 7.2 7.2.1-.1c.4-.4 1-.4 1.4 0l1 1c.4.4.4 1 0 1.4zM6.4 9L13 2.4v-.1l-1-1h-.1L5.2 7.9V8l1 1c.1.1.1.1.2 0zm1.4 0l7.1 7.1L20 11l-7.1-7.1L7.8 9zm14.8 2.9l-1-1h-.1l-6.6 6.6v.1l1 1h.1l6.6-6.6v-.1z"/></symbol><symbol viewBox="0 0 24 24" id="icon-link"><title>link</title><g fill="none" stroke="currentColor" stroke-width="2" stroke-linecap="square" stroke-miterlimit="10"><path d="M11 6l2.5-2.5c1.9-1.9 5.1-1.9 7 0 1.9 1.9 1.9 5.1 0 7L18 13m-5 5l-2.5 2.5c-1.9 1.9-5.1 1.9-7 0-1.9-1.9-1.9-5.1 0-7L6 11"/><path data-color="color-2" d="M9 15l6-6"/></g></symbol><symbol viewBox="0 0 105 105" id="icon-loader"><title>loader</title><circle cx="12.5" cy="12.5" r="12.5" id="loader-circle-1"/><circle cx="12.5" cy="52.5" r="12.5" id="loader-circle-2"/><circle cx="52.5" cy="12.5" r="12.5" id="loader-circle-3"/><circle cx="52.5" cy="52.5" r="12.5" id="loader-circle-4"/><circle cx="92.5" cy="12.5" r="12.5" id="loader-circle-5"/><circle cx="92.5" cy="52.5" r="12.5" id="loader-circle-6"/><circle cx="12.5" cy="92.5" r="12.5" id="loader-circle-7"/><circle cx="52.5" cy="92.5" r="12.5" id="loader-circle-8"/><circle cx="92.5" cy="92.5" r="12.5" id="loader-circle-9"/></symbol><symbol viewBox="0 0 24 24" id="icon-lock"><title>Artboard 1</title><path fill="none" stroke="currentColor" stroke-width="2" class="st0" d="M17 9V6c0-2.8-2.2-5-5-5S7 3.2 7 6v3M5 9h14c.6 0 1 .4 1 1v12c0 .6-.4 1-1 1H5c-.6 0-1-.4-1-1V10c0-.6.4-1 1-1z"/></symbol><symbol viewBox="0 0 12 16" id="icon-menu"><title>menu</title><path fill="currentColor" d="M0 3v2h12V3H0zm0 6h12V7H0v2zm0 4h12v-2H0v2z"/></symbol><symbol viewBox="0 0 24 24" id="icon-mobile"><title>mobile</title><path fill="currentColor" d="M23 6h-1c0-2.8-2.2-5-5-5V0c3.3 0 6 2.7 6 6zm-6-3v1c1.1 0 2 .9 2 2h1c0-1.7-1.3-3-3-3zm1 3v17c0 .6-.4 1-1 1H7c-.6 0-1-.4-1-1V6c0-.6.4-1 1-1h10c.6 0 1 .4 1 1zm-1 0H7v17h10V6zM8 18.5v-11c0-.3.2-.5.5-.5h7c.3 0 .5.2.5.5v11c0 .3-.2.5-.5.5h-7c-.3 0-.5-.2-.5-.5zm1-.5h6V8H9v10zm3 2c-.6 0-1 .4-1 1s.4 1 1 1 1-.4 1-1-.4-1-1-1z"/></symbol><symbol viewBox="0 0 24 24" id="icon-more"><title>more</title><path fill="currentColor" d="M6 12c0 1.1-.9 2-2 2s-2-.9-2-2 .9-2 2-2 2 .9 2 2zm6-2c-1.1 0-2 .9-2 2s.9 2 2 2 2-.9 2-2-.9-2-2-2zm8 0c-1.1 0-2 .9-2 2s.9 2 2 2 2-.9 2-2-.9-2-2-2z"/></symbol><symbol viewBox="0 0 24 24" id="icon-news"><title>news</title><path fill="currentColor" d="M7.5 9h5c.3 0 .5-.2.5-.5v-5c0-.3-.2-.5-.5-.5h-5c-.3 0-.5.2-.5.5v5c0 .3.2.5.5.5zM8 4h4v4H8V4zm13 2h-6V5h6v1zm0 3h-6V8h6v1zm0 3H7v-1h14v1zm0 3H7v-1h14v1zm0 3H7v-1h14v1zm2.3-18H4.7c-.4 0-.7.3-.7.7V3H.8c-.5 0-.8.3-.8.8v19.5c0 .4.3.7.8.7h22.5c.4 0 .7-.3.7-.7V.8c0-.5-.3-.8-.7-.8zM23 23H1V4h3v18h1V1h18v22z"/></symbol><symbol viewBox="0 0 24 24" id="icon-oil-bottle"><title>oil-bottle</title><path fill="currentColor" d="M6 3H5V1c0-.6.4-1 1-1h5c.6 0 1 .4 1 1v2h-1V1H6v2zm14 7v12c0 1.1-.9 2-2 2H6c-1.1 0-2-.9-2-2V6c0-1.1.9-2 2-2h7c.1 0 .2 0 .3.1l6.5 5.5c.1.1.2.3.2.4zm-1 .2L12.8 5H6c-.6 0-1 .4-1 1v16c0 .6.4 1 1 1h12c.6 0 1-.4 1-1V10.2zm-6.6-.6c.5 1.1 1 1.8 1.4 2.3.7 1 1.2 1.7 1.2 3.6 0 1.7-1.2 3.5-3.5 3.5C9.1 19 8 16.9 8 15.4c0-1.8.5-2.5 1.2-3.5.4-.5.9-1.2 1.4-2.4.2-.3.5-.5.9-.5s.7.2.9.6zm-.9.4C10 13.1 9 13 9 15.4c0 1 .7 2.6 2.5 2.6s2.5-1.5 2.5-2.5c0-2.5-1-2.4-2.5-5.5z"/></symbol><symbol viewBox="0 0 9 16" id="icon-pause"><title>pause</title><path fill="currentColor" d="M0 0h3.429v16H0V0zm5.714 0h3.429v16H5.714V0z"/></symbol><symbol viewBox="0 0 24 24" id="icon-phone"><title>phone</title><g stroke-linecap="square"><path fill="none" stroke="currentColor" stroke-width="2" stroke-miterlimit="10" d="M18 23H6a2 2 0 0 1-2-2V3a2 2 0 0 1 2-2h12a2 2 0 0 1 2 2v18a2 2 0 0 1-2 2z"/><circle data-color="color-2" data-stroke="none" fill="currentColor" cx="12" cy="19" r="1"/></g></symbol><symbol viewBox="0 0 24 24" id="icon-pie-chart"><title>pie-chart</title><path fill="currentColor" d="M12 0v12h12c0-6.7-5.3-12-12-12zm1 1c5.4.5 9.5 4.6 10 10H13V1zm-2 1C4.9 2 0 6.9 0 13s4.9 11 11 11 11-4.9 11-11H11V2zm9.9 12c-.5 5-4.8 9-9.9 9-5.5 0-10-4.5-10-10 0-5.2 4-9.4 9-9.9V14h10.9z"/></symbol><symbol viewBox="0 0 9 16" id="icon-play"><title>play</title><path fill="currentColor" d="M0 0l9.143 8L0 16V0z"/></symbol><symbol viewBox="0 0 16 16" id="icon-plus"><title>plus</title><path fill="currentColor" d="M10 6V0H6v6H0v4h6v6h4v-6h6V6h-6z"/></symbol><symbol viewBox="0 0 24 24" id="icon-power-cord"><title>power-cord</title><path fill="currentColor" d="M9 3H8V0h1v3zm4-3h-1v3h1V0zm-1 13H9c-1.7 0-3-1.3-3-3V5c0-.6.4-1 1-1h7c.6 0 1 .4 1 1v5c0 1.7-1.3 3-3 3zm-3-1h3c1.1 0 2-.9 2-2V5H7v5c0 1.1.9 2 2 2zm8 8c0 1.7-1.3 3-3 3s-3-1.3-3-3v-6h-1v6c0 2.2 1.8 4 4 4s4-1.8 4-4h-1z"/></symbol><symbol viewBox="0 0 24 24" id="icon-print"><title>print</title><path fill="currentColor" d="M24 9v9c0 .5-.5 1-1 1h-4v-1h4V9H1v9h4v1H1c-.5 0-1-.5-1-1V9c0-.5.5-1 1-1h22c.5 0 1 .5 1 1zm-6.9 7l.8 7c.1.5-.3 1-.9 1H7c-.5 0-1-.4-.9-1l.8-7c.1-.6.6-1 1.1-1h8c.5 0 1 .4 1.1 1zm-.2 7l-.8-6.9-.1-.1H8l-.1.1-.8 6.9h9.8zM9 19h6v-1H9v1zm0 2h6v-1H9v1zM7 1h10v6h1V1c0-.5-.5-1-1-1H7c-.5 0-1 .5-1 1v6h1V1z"/></symbol><symbol viewBox="0 0 17 16" id="icon-profile"><title>profile</title><path fill="currentColor" d="M10.9 8.9c1.3-.9 2.2-2.3 2.2-3.9C13.1 2.4 11 .3 8.4.3S3.7 2.4 3.7 5c0 1.6.9 3.1 2.1 3.9C2.7 9.7.3 12.6.3 16h1c0-3.5 2.9-6.4 6.4-6.4h1.4c3.5 0 6.4 2.9 6.4 6.4h1c0-3.4-2.4-6.3-5.6-7.1zM4.7 5c0-2 1.7-3.7 3.7-3.7S12.1 3 12.1 5s-1.7 3.7-3.7 3.7C6.3 8.6 4.7 7 4.7 5z"/></symbol><symbol viewBox="0 0 6 10" id="icon-question-mark"><title>question-mark</title><path id="question-mark-_x3F_" d="M1.4 1.6c-.4.1-.7.3-1 .4V.6c.3-.1.6-.2 1-.4.4-.1.9-.2 1.4-.2.9 0 1.6.2 2.1.7.5.5.8 1.1.8 1.9 0 .7-.2 1.3-.6 1.8-.3.6-.9 1.2-1.8 1.7v.8H1.9V5.3c.8-.4 1.3-.8 1.7-1.1.4-.4.5-.8.5-1.2 0-.4-.1-.8-.4-1-.3-.4-.7-.5-1.2-.5-.4 0-.8 0-1.1.1zm2.1 8.3H1.7V8.1h1.8v1.8z"/></symbol><symbol viewBox="0 0 31.9 27" id="icon-quote"><title>Quote</title><path d="M13.1 26.9H.8V18c0-3.6.3-6.4.9-8.5S3.5 5.6 5.2 4 9.1 1.1 11.7.1l2.4 5.1c-2.5.8-4.2 2-5.3 3.4S7.2 12 7.1 14.4h6v12.5zm16.7 0H17.4V18c0-3.6.3-6.4.9-8.5s1.8-3.9 3.5-5.5 3.9-2.9 6.5-3.9l2.4 5.1c-2.5.8-4.2 2-5.3 3.4s-1.6 3.4-1.7 5.8h6l.1 12.5z"/></symbol><symbol viewBox="0 0 20.4 16" id="icon-sap"><title>sap</title><path fill="currentColor" d="M0 0v16h8.5L20.4 0H0zm7.6 14.4h-6V1.6h15.6L7.6 14.4z"/></symbol><symbol viewBox="0 0 16 16" id="icon-search"><title>search</title><path fill="currentColor" d="M15.68 13.858l-3.865-3.92a6.376 6.376 0 0 0 1.045-3.516A6.438 6.438 0 1 0 9.962 11.8l3.841 3.88c.2.202.477.327.784.327s.584-.125.784-.327l.309-.221a1.103 1.103 0 0 0 .001-1.601zM9.176 9.176A3.865 3.865 0 1 1 3.71 3.71a3.865 3.865 0 0 1 5.466 5.466z"/></symbol><symbol viewBox="0 0 24 24" id="icon-settings"><title>settings</title><path fill="currentColor" d="M23.2 10l-2.6-.6c-.2-.6-.4-1.1-.7-1.6l1.4-2.3c.2-.4.2-.9-.2-1.2l-1.4-1.4c-.2-.2-.4-.3-.7-.3-.2 0-.4 0-.5.1l-2.3 1.4c-.5-.3-1-.5-1.6-.7L14 .8c-.1-.5-.5-.8-1-.8h-2c-.5 0-.9.3-1 .8l-.6 2.6c-.6.2-1.1.4-1.6.7L5.4 2.7c-.1-.1-.3-.2-.5-.2-.3 0-.5.1-.7.3L2.8 4.2c-.3.4-.4.9-.2 1.3L4 7.8c-.3.5-.5 1-.7 1.6L.8 10c-.5.1-.8.5-.8 1v2c0 .5.3.9.8 1l2.6.6c.2.6.4 1.1.7 1.6l-1.4 2.3c-.2.4-.2.9.2 1.2l1.4 1.4c.2.2.4.3.7.3.2 0 .4 0 .5-.1l2.3-1.4c.5.3 1 .5 1.6.7l.7 2.6c.1.4.5.8 1 .8h2c.5 0 .9-.3 1-.8l.6-2.6c.6-.2 1.1-.4 1.6-.7l2.3 1.4c.2.1.3.1.5.1.3 0 .5-.1.7-.3l1.4-1.4c.3-.3.4-.8.1-1.2l-1.4-2.3c.3-.5.5-1 .7-1.6l2.6-.7c.4-.1.8-.5.8-1v-2c0-.4-.3-.8-.8-.9zm-.2 3l-2.1.5-1.1.3c-.2.9-.5 1.7-1 2.4l1.7 2.8-1.4 1.4-1.9-1.1-1-.6c-.7.5-1.6.8-2.4 1L13 23h-2l-.5-2.1-.3-1.1c-.9-.2-1.7-.5-2.4-1L5 20.5l-1.4-1.4 1.1-1.9.6-1c-.5-.7-.8-1.6-1-2.4L1 13v-2l2.1-.5 1.1-.3c.2-.9.5-1.7 1-2.4L3.5 4.9l1.4-1.4 1.9 1.1 1 .6c.7-.5 1.6-.8 2.4-1L11 1h2l.5 2.1.3 1.1c.9.2 1.7.5 2.4 1l.9-.6L19 3.5l1.4 1.4-1.1 1.9-.6 1c.5.7.8 1.6 1 2.4l3.3.8v2zM12 7c-2.8 0-5 2.2-5 5s2.2 5 5 5 5-2.2 5-5-2.2-5-5-5zm0 9c-2.2 0-4-1.8-4-4s1.8-4 4-4 4 1.8 4 4-1.8 4-4 4z"/></symbol><symbol viewBox="0 0 24 24" id="icon-share"><title>share</title><path d="M20 9v14c0 .6-.4 1-1 1H6c-.6 0-1-.4-1-1V9c0-.6.4-1 1-1h5v1H6v14h13V9h-5V8h5c.6 0 1 .4 1 1zm-8-6.9V14h1V2.1l3.7 3.3.7-.7-4.5-4c-.2-.2-.5-.2-.7 0l-4.5 4 .7.7L12 2.1z"/></symbol><symbol viewBox="0 0 24 24" id="icon-snowflake"><title>snowflake</title><path d="M17 9.6L13 12l4 2.4-.5.9-4-2.4v4.6h-1v-4.6l-4 2.4-.5-.9 4-2.4-4-2.4.5-.9 4 2.4V6.5h1v4.6l4-2.4.5.9zm5.1-3.1l-.5-.9L19 7.1l.5 1 2.6-1.6zm-4.3 2.3l2.6 1.4.5-.9-2.4-1.2V5.5h-1v2.9c0 .2.1.3.3.4zM1.9 17.5l.5.9L5 16.9l-.5-.9-2.6 1.5zm4.3-2.3l-2.6-1.4-.5.9 2.4 1.2v2.6h1v-2.9c0-.2-.1-.3-.3-.4zM5 7.2L2.4 5.6l-.5.9L4.5 8l.5-.8zm.5.9L3.2 9.3l.5.9 2.6-1.4c.1-.1.2-.2.2-.4V5.5h-1v2.6zM19 16.8l2.6 1.5.5-.9-2.6-1.5-.5.9zm1.3-3l-2.6 1.4c-.2.1-.3.3-.3.4v2.9h1v-2.6l2.3-1.2-.4-.9zM12.5.5h-1v3h1v-3zm-.5 5c.1 0 .2 0 .3-.1l2.5-1.5-.5-.9-2.2 1.3-2.3-1.2-.6.8 2.5 1.5c.1.1.2.1.3.1zm-.5 18h1v-3h-1v3zm.2-4.9l-2.5 1.5.5.9 2.2-1.3 2.2 1.3.5-.9-2.5-1.5c0-.1-.2-.1-.4 0z"/></symbol><symbol viewBox="0 0 16 16" id="icon-square"><title>square</title><path fill="currentColor" d="M0 0h16v16H0V0z"/></symbol><symbol viewBox="0 0 24 24" id="icon-sun"><title>sun</title><path d="M12 5.5c-3.6 0-6.5 2.9-6.5 6.5s2.9 6.5 6.5 6.5 6.5-2.9 6.5-6.5-2.9-6.5-6.5-6.5zm0 12c-3 0-5.5-2.5-5.5-5.5S9 6.5 12 6.5 17.5 9 17.5 12 15 17.5 12 17.5zm11.5-6v1h-4v-1h4zm-19 1h-4v-1h4v1zm8-8h-1v-4h1v4zm-1 15h1v4h-1v-4zM6.3 7.1L3.5 4.2l.7-.7L7 6.3l-.7.8zm11.4 9.8l2.8 2.8-.7.8-2.8-2.8.7-.8zm-11.4 0l.7.7-2.8 2.9-.7-.7 2.8-2.9zm11.4-9.8l-.7-.7 2.8-2.9.7.7-2.8 2.9z"/></symbol><symbol viewBox="0 0 16 16" id="icon-support"><title>support</title><path d="M8 1C4.2 1 1 4.2 1 8s3.2 7 7 7 7-3.2 7-7-3.2-7-7-7zm0 11.4c-.5 0-.9-.3-.9-.9s.3-.9.9-.9.9.3.9.9-.4.9-.9.9zm1.3-4.1c-.4.3-.4.4-.4.6v.9H7.1v-.9c0-1.1.7-1.7 1.2-2 .4-.3.5-.3.5-.6 0-.5-.3-.9-.9-.9-.4 0-.7.3-.9.4l-.2.8-1.5-.9.4-.8C6.2 4.2 7 3.6 8 3.6c1.5 0 2.6 1.1 2.6 2.6 0 1.3-.8 1.8-1.3 2.1z"/></symbol><symbol viewBox="0 0 24 24" id="icon-trash"><title>trash</title><path d="M11.5 7h1v13h-1V7zm3 13h1V7h-1v13zm-6 0h1V7h-1v13zm12-17v1h-1v19c0 .6-.4 1-1 1h-13c-.6 0-1-.4-1-1V4h-1V3h4V1c0-.6.4-1 1-1h7c.6 0 1 .4 1 1v2h4zm-12 0h7V1h-7v2zm10 1h-13v19h13V4z"/></symbol><symbol viewBox="0 0 24 24" id="icon-travel"><title>travel</title><path fill="currentColor" d="M8 6H7V3c0-.6.4-1 1-1h8c.6 0 1 .4 1 1v3h-1V3H8v3zm16 2v15c0 .6-.4 1-1 1H1c-.6 0-1-.4-1-1V8c0-.6.4-1 1-1h22c.6 0 1 .4 1 1zM5 8H1v15h4V8zm13 0H6v15h12V8zm5 0h-4v15h4V8z"/></symbol><symbol viewBox="0 0 22 16" id="icon-triangle-down"><title>triangle-down</title><path fill="currentColor" d="M0 0l10.894 16L21.617 0H0z"/></symbol><symbol viewBox="0 0 22 16" id="icon-triangle-up"><title>triangle-up</title><path fill="currentColor" d="M0 16L10.894 0l10.723 16z"/></symbol><symbol viewBox="0 0 24 24" id="icon-truck"><title>truck</title><path fill="currentColor" d="M23 1v19h-1V1H2v19H1V1c0-.6.4-1 1-1h20c.6 0 1 .4 1 1zM7 22c0 .6-.4 1-1 1s-1-.4-1-1v-1H4v1c0 1.1.9 2 2 2s2-.9 2-2v-1H7v1zm12 0c0 .6-.4 1-1 1s-1-.4-1-1v-1h-1v1c0 1.1.9 2 2 2s2-.9 2-2v-1h-1v1zm2-8v5c0 .6-.4 1-1 1H4c-.6 0-1-.4-1-1v-5c0-1.3.8-2.4 2-2.8V7c0-.4.1-.8.3-1.1.1-.2.3-.4.5-.5.4-.3.8-.4 1.2-.4h10c.4 0 .8.1 1.1.3.2.1.4.3.5.5.3.4.4.8.4 1.2v4.2c1.2.4 2 1.5 2 2.8zm-1 0c0-1.1-.9-2-2-2V7c0-.6-.4-1-1-1H7c-.6 0-1 .4-1 1v5c-1.1 0-2 .9-2 2v5h16v-5zm-3-2H7V8c0-.6.4-1 1-1h8c.6 0 1 .4 1 1v4zm-1-4H8v3h8V8zm-7 7.5c0 .8-.7 1.5-1.5 1.5S6 16.3 6 15.5 6.7 14 7.5 14s1.5.7 1.5 1.5zm9 0c0 .8-.7 1.5-1.5 1.5s-1.5-.7-1.5-1.5.7-1.5 1.5-1.5 1.5.7 1.5 1.5z"/></symbol><symbol viewBox="0 0 24 24" id="icon-unlock"><title>Artboard 1</title><path fill="none" stroke="currentColor" d="M16.6 4A5.05 5.05 0 0 0 12 1a5 5 0 0 0-5 5v3" stroke-linecap="round" stroke-miterlimit="10" stroke-width="2"/><rect fill="none" stroke="currentColor" x="4" y="9" width="16" height="14" rx="1" ry="1" stroke-linecap="square" stroke-miterlimit="10" stroke-width="2"/></symbol><symbol viewBox="0 0 24 24" id="icon-upload"><title>upload</title><path d="M21.5 23v1h-19v-1h19zm-10-21.3V21h1V1.7l4.6 4.6.7-.7L12.4.1c-.1 0-.3-.1-.4-.1s-.3.1-.4.1L6.1 5.6l.7.7 4.7-4.6z"/></symbol><symbol viewBox="0 0 24 24" id="icon-user"><title>user</title><path fill="currentColor" d="M15.7 15c3.5 0 6.3 2.8 6.3 6.3V23H2v-1.6C2 17.8 4.8 15 8.3 15h7.4m0-1H8.3c-4 0-7.3 3.3-7.3 7.3V23c0 .6.5 1 1 1h20c.6 0 1-.5 1-1v-1.6c0-4.1-3.3-7.4-7.3-7.4zM12 1c3 0 5.5 2.5 5.5 5.5S15 12 12 12 6.5 9.5 6.5 6.5 9 1 12 1m0-1C8.4 0 5.5 2.9 5.5 6.5S8.4 13 12 13s6.5-2.9 6.5-6.5S15.6 0 12 0z"/></symbol><symbol viewBox="0 0 15 14" id="icon-warning"><title>warning</title><path fill="currenColor" d="M13.6 10.7L9.2 2.9c-.9-1.7-2.5-1.7-3.4 0l-4.4 7.8c-.9 1.7-.2 3 1.8 3h8.7c1.9 0 2.7-1.3 1.7-3zM7.5 12c-.5 0-.9-.4-.9-.9s.4-.9.9-.9.9.4.9.9-.4.9-.9.9zm-.9-6.9h1.7v4.3H6.6V5.1z"/></symbol><symbol viewBox="0 0 24 24" id="icon-x"><title>x</title><path d="M19 5L5 19m14 0L5 5" fill="none" stroke="currentColor" stroke-width="4" stroke-linecap="square" stroke-miterlimit="10"/></symbol><symbol viewBox="0 0 24 24" id="icon-yammer"><title>yammer</title><path fill="currentColor" class="st0" d="M12.8 6l-3.7 9.5c-.7 1.8-1.3 3.7-3.7 3.8-.4 0-1 0-1.3-.2-.6-.3-.5-1.1 0-1.4.2-.1.4-.1.6-.1 1.7.1 2.1-.9 2.6-2.3L3.5 6c-.2-.5-.1-1 .4-1.2.7-.3 1.1 0 1.4.6 1 2.5 2 5.1 3 7.6 0 0 .1.1.1 0l.9-2.3c.7-1.7 1.3-3.4 2-5.1.1-.4.4-.7.9-.7.2 0 .3 0 .4.1.2.1.4.5.2 1zM0 22.8c0 .7.5 1.2 1.2 1.2h21.6c.7 0 1.2-.5 1.2-1.2V1.2c0-.7-.5-1.2-1.2-1.2H1.2C.5 0 0 .5 0 1.2v21.6zM13.5 9.6c.4-.5 3.5-2.9 4.1-3.1.9-.2 1.5.8.8 1.5-.4.4-4 1.9-4.6 2-.2 0-.4.1-.4 0-.1-.1 0-.3.1-.4zm6.5 1.7c.4.1.6.5.6.8 0 .3-.2.7-.6.8-.5.1-3.3-.1-4.6-.5-.4-.1-.6-.2-.7-.4 0-.2.3-.3.7-.4 1.3-.1 4.1-.4 4.6-.3zm-6.6 3.1c.1-.1.3-.1.4 0 .7.1 4.2 1.6 4.6 2 .7.7.1 1.7-.8 1.5-.6-.1-3.7-2.6-4.1-3.1-.1-.1-.2-.3-.1-.4z"/></symbol></svg>